<svg id="Capa_1" enable-background="new 0 0 512.009 512.009" height="512" viewBox="0 0 512.009 512.009" width="512" xmlns="http://www.w3.org/2000/svg"><g><path d="m241.005 200.437v145.947h30v-184.12z" fill="#efc277"/><path d="m256.005 346.384h15v-184.12l-15 17.289z" fill="#e9a43a"/><path d="m376.505 391.634c-8.067 0-16.012 1.286-23.569 3.781-6.777-15.826-17.421-29.947-30.965-40.832-18.615-14.96-42.042-23.199-65.966-23.199s-47.351 8.239-65.966 23.199c-13.544 10.885-24.188 25.006-30.965 40.832-7.557-2.495-15.502-3.781-23.569-3.781-41.493 0-75.25 33.757-75.25 75.25v30.125c0 8.284 6.716 15 15 15h361.5c8.284 0 15-6.716 15-15v-30.125c0-41.493-33.757-75.25-75.25-75.25z" fill="#8f5041"/><path d="m436.755 512.009c8.284 0 15-6.716 15-15v-30.125c0-41.493-33.757-75.25-75.25-75.25-8.067 0-16.012 1.286-23.569 3.781-6.777-15.826-17.421-29.947-30.965-40.832-18.615-14.96-42.042-23.199-65.966-23.199v180.625z" fill="#773941"/><path d="m382.552 74.402c-.421-7.634-6.517-13.73-14.151-14.151-2.601-.145-64.178-3.085-101.734 34.471-3.996 3.996-7.529 8.266-10.661 12.705-5.502-22.109-15.843-46.81-35.171-66.138-44.86-44.86-118.68-41.333-121.8-41.159-7.634.421-13.73 6.517-14.151 14.151-.172 3.121-3.701 76.94 41.16 121.8 33.16 33.16 81.475 39.846 106.03 41.027h8.93v23.329c0 5.677 4.602 10.279 10.279 10.279 15.735 0 64.919-2.7 96.797-34.579 37.557-37.557 34.615-99.132 34.472-101.735z" fill="#85c782"/><path d="m368.401 60.251c-2.601-.145-64.178-3.085-101.734 34.471-3.996 3.996-7.529 8.266-10.661 12.705 0-.002-.001-.003-.001-.005v103.215c19.264-.595 62.906-5.331 92.076-34.501 37.556-37.557 34.615-99.132 34.471-101.735-.421-7.633-6.517-13.729-14.151-14.15z" fill="#569759"/></g></svg>